# xmcd
#
# Track frame offsets:
#	150
#	14915
#	30737
#	42375
#	55450
#	68832
#	81215
#	95112
#	109202
#	122885
#	136170
#	149177
#	162100
#	175782
#	188940
#	202745
#	213215
#	223807
#	235625
#	246310
#	257620
#	267017
#	277262
#	288857
#	299860
#	312635
#	322892
#	342860
#
# Disc length: 4714 seconds
#
# Revision: 1
# Processed by: cddbd v1.5.1PL0 Copyright (c) Steve Scherf et al.
# Submitted via: CDex 1.50Beta5
#
DISCID=c412681c
DTITLE=さまざまなアーティスト - メガ・ヒッツ’50s
DYEAR=1900
DGENRE=Other
TTITLE0=トニー・マーティン/バラ色の人生
TTITLE1=マリオ・ランツァ/ビー・マイ・ラヴ
TTITLE2=エディ・フィッシャー/エニータイム
TTITLE3=エームス・ブラザーズ/ユー・ユー・ユー
TTITLE4=アーサ・キット/セ・シ・ボン
TTITLE5=ジューン・ヴァリ/涙のチャペル
TTITLE6=ダイナ・ショア/青いカナリヤ
TTITLE7=エディ・フィッシャー/オー・マイ・パパ
TTITLE8=ペレス・プラード楽団/セレソ・ローサ
TTITLE9=ケイ・スター/ロックン・ロール・ワルツ
TTITLE10=ユーゴー・ウィンターハルター楽団/カナダの夕陽
TTITLE11=スリー・サンズ/誇り高き男
TTITLE12=ハリー・ベラフォンテ/さらばジャマイカ
TTITLE13=ミッキー&シルヴィア/恋は異なもの
TTITLE14=ハリー・ベラフォンテ/バナナ・ボート
TTITLE15=ポール・アンカ/ダイアナ
TTITLE16=アンソニー・パーキンス/月影のなぎさ
TTITLE17=エームス・ブラザーズ/メロディー・ダムール
TTITLE18=ペレス・プラード楽団/パトリシア
TTITLE19=ペリー・コモ/キャッチ・ア・フォーリング・スター
TTITLE20=ヘンリー・マンシーニ楽団/ピーター・ガン
TTITLE21=ニール・セダカ/恋の日記
TTITLE22=レイ・ピーターソン/ワンダー・オブ・ユー
TTITLE23=ポール・アンカ/ロンリー・ボーイ
TTITLE24=ブラウンズ/谷間に三つの鐘がなる
TTITLE25=ニール・セダカ/おお!キャロル
TTITLE26=アイズレー・ブラザーズ/シャウト(パート1&2)
TTITLE27=ニール・セダカ/恋の片道切符
EXTD=
EXTT0=
EXTT1=
EXTT2=
EXTT3=
EXTT4=
EXTT5=
EXTT6=
EXTT7=
EXTT8=
EXTT9=
EXTT10=
EXTT11=
EXTT12=
EXTT13=
EXTT14=
EXTT15=
EXTT16=
EXTT17=
EXTT18=
EXTT19=
EXTT20=
EXTT21=
EXTT22=
EXTT23=
EXTT24=
EXTT25=
EXTT26=
EXTT27=
PLAYORDER=
